<svg xmlns="http://www.w3.org/2000/svg" viewBox="0 0 45 45"><defs><clipPath id="a"><path d="M0 36h36V0H0v36z"/></clipPath></defs><g clip-path="url(#a)" transform="matrix(1.25 0 0 -1.25 0 45)"><path d="M11.136 16.962a1.814 1.814 0 0 0-1.281-2.221l-.363-.096a1.812 1.812 0 0 0-2.22 1.28L4.07 27.88a1.814 1.814 0 0 0 1.282 2.22l.36.097a1.813 1.813 0 0 0 2.222-1.281l3.202-11.953zM15.931 18.902a1.874 1.874 0 0 0-1.564-2.14l-.248-.04a1.875 1.875 0 0 0-2.14 1.566l-2.34 15.07a1.873 1.873 0 0 0 1.564 2.14l.248.039a1.876 1.876 0 0 0 2.141-1.566l2.34-15.07zM20.596 19.019a1.835 1.835 0 0 0-1.937-1.726l-.244.014a1.835 1.835 0 0 0-1.727 1.937l.858 14.899a1.836 1.836 0 0 0 1.938 1.727l.244-.015a1.834 1.834 0 0 0 1.726-1.937l-.858-14.9zM25.188 17.06a1.751 1.751 0 0 0-2.101-1.31l-.486.113a1.75 1.75 0 0 0-1.31 2.1l3.273 14.125a1.75 1.75 0 0 0 2.1 1.31l.487-.112a1.753 1.753 0 0 0 1.31-2.101L25.188 17.06zM28.927 8.64a1.89 1.89 0 0 0-2.581-.69l-.192.11a1.888 1.888 0 0 0-.691 2.58l5.609 9.719a1.891 1.891 0 0 0 2.582.692l.192-.111a1.889 1.889 0 0 0 .69-2.581l-5.61-9.718z" fill="#f3d2a2"/><path d="M6.183 19.993C6.663 17.65 6 14.807 6 12 6 9.192 8.125 0 18 0s10.5 8.234 12 10.666c1.5 2.432-.37 6.514-1.813 4.704-1.957-2.453-3.466-2.053-2.646 2.69.612 3.537-2.964 5.244-3.602 2.052-.493-2.467-1.3-1.952-1.186.775.137 3.283-3.68 3.641-3.875-.09-.143-2.708-1.05-1.552-1.322.273-.235 1.563-4.39 2.721-4.014.32.593-3.786-.182-4.835-1.458-.724-.805 2.594-4.381 1.67-3.901-.673" fill="#f3d2a2"/><path d="M25.965 13.947c-.3.122-.51.486-.6 1.114-1.89-.259-4.395-.769-6.365-2.695-2.555-2.499-2.991-5.2-2.971-7.007.017-1.457.812-2.146 1.045.012.294 2.726 2.244 8.128 8.89 8.576" fill="#d2a077"/></g></svg>