<svg width="88" height="88" viewBox="0 0 88 88" fill="none"
     xmlns="http://www.w3.org/2000/svg">
  <style>
    path { fill: black; }
    @media (prefers-color-scheme: dark) { path { fill: white; } }
  </style>
  <path
    d="M79 43.5278C79 53.3286 75.5289 61.7001 68.5867 68.6424C61.6816 75.5475 53.3286 79 43.5278 79C33.7271 79 25.3556 75.5475 18.4133 68.6424C11.4711 61.7001 8 53.3286 8 43.5278C8 33.6899 11.4711 25.3184 18.4133 18.4133C25.3556 11.4711 33.7271 8 43.5278 8C53.3286 8 61.6816 11.4711 68.5867 18.4133C75.5289 25.3184 79 33.6899 79 43.5278ZM73.8769 43.5278C73.8769 35.1378 70.9069 27.9914 64.9671 22.0886C59.0643 16.1488 51.9179 13.1788 43.5278 13.1788C35.1378 13.1788 27.9728 16.1488 22.0329 22.0886C16.1302 27.9914 13.1788 35.1378 13.1788 43.5278C13.1788 51.8808 16.1302 59.0272 22.0329 64.9671C27.9728 70.8698 35.1378 73.8212 43.5278 73.8212C51.9179 73.8212 59.0643 70.8698 64.9671 64.9671C70.9069 59.0272 73.8769 51.8808 73.8769 43.5278ZM34.3953 36.1773C34.3953 37.4024 33.9498 38.4604 33.0588 39.3514C32.205 40.2424 31.1469 40.6878 29.8847 40.6878C28.6596 40.6878 27.6016 40.2424 26.7106 39.3514C25.8196 38.4604 25.3741 37.4024 25.3741 36.1773C25.3741 34.915 25.8196 33.857 26.7106 33.0031C27.6016 32.1122 28.6596 31.6667 29.8847 31.6667C31.1469 31.6667 32.205 32.1122 33.0588 33.0031C33.9498 33.857 34.3953 34.915 34.3953 36.1773ZM61.6259 36.1773C61.6259 37.4024 61.1804 38.4604 60.2894 39.3514C59.4356 40.2424 58.3775 40.6878 57.1153 40.6878C55.8902 40.6878 54.8322 40.2424 53.9412 39.3514C53.0502 38.4604 52.6047 37.4024 52.6047 36.1773C52.6047 34.915 53.0502 33.857 53.9412 33.0031C54.8322 32.1122 55.8902 31.6667 57.1153 31.6667C58.3775 31.6667 59.4356 32.1122 60.2894 33.0031C61.1804 33.857 61.6259 34.915 61.6259 36.1773ZM27.1561 54.9435L30.6086 52.9388C33.5414 58.2847 37.8478 60.9576 43.5278 60.9576C49.2078 60.9576 53.4957 58.2847 56.3914 52.9388L59.8996 54.9435C58.0434 58.4703 55.7417 61.1618 52.9945 63.018C50.2844 64.8742 47.1289 65.8024 43.5278 65.8024C39.8897 65.8024 36.7156 64.8742 34.0055 63.018C31.2954 61.1618 29.0123 58.4703 27.1561 54.9435Z"/>
</svg>
